<?xml version="1.0" encoding="UTF-8" standalone="no"?>
<!-- Generator: Adobe Illustrator 19.0.0, SVG Export Plug-In . SVG Version: 6.00 Build 0)  -->

<svg
   xmlns:dc="http://purl.org/dc/elements/1.1/"
   xmlns:cc="http://creativecommons.org/ns#"
   xmlns:rdf="http://www.w3.org/1999/02/22-rdf-syntax-ns#"
   xmlns:svg="http://www.w3.org/2000/svg"
   xmlns="http://www.w3.org/2000/svg"
   xmlns:sodipodi="http://sodipodi.sourceforge.net/DTD/sodipodi-0.dtd"
   xmlns:inkscape="http://www.inkscape.org/namespaces/inkscape"
   version="1.1"
   id="Layer_1"
   x="0px"
   y="0px"
   viewBox="0 0 512.019 512.019"
   style="enable-background:new 0 0 512.019 512.019;"
   xml:space="preserve"
   width="512px"
   height="512px"
   inkscape:version="0.91 r13725"
   sodipodi:docname="raindropp.svg"><metadata
     id="metadata3458"><rdf:RDF><cc:Work
         rdf:about=""><dc:format>image/svg+xml</dc:format><dc:type
           rdf:resource="http://purl.org/dc/dcmitype/StillImage" /><dc:title></dc:title></cc:Work></rdf:RDF></metadata><defs
     id="defs3456"><marker
       inkscape:stockid="Arrow1Lstart"
       orient="auto"
       refY="0.0"
       refX="0.0"
       id="marker4540"
       style="overflow:visible"
       inkscape:isstock="true"><path
         id="path4542"
         d="M 0.0,0.0 L 5.0,-5.0 L -12.5,0.0 L 5.0,5.0 L 0.0,0.0 z "
         style="fill-rule:evenodd;stroke:#ffffff;stroke-width:1pt;stroke-opacity:1;fill:#000000;fill-opacity:1"
         transform="scale(0.8) translate(12.5,0)" /></marker><marker
       inkscape:stockid="Arrow1Lstart"
       orient="auto"
       refY="0.0"
       refX="0.0"
       id="Arrow1Lstart"
       style="overflow:visible"
       inkscape:isstock="true"><path
         id="path4270"
         d="M 0.0,0.0 L 5.0,-5.0 L -12.5,0.0 L 5.0,5.0 L 0.0,0.0 z "
         style="fill-rule:evenodd;stroke:#ffffff;stroke-width:1pt;stroke-opacity:1;fill:#000000;fill-opacity:1"
         transform="scale(0.8) translate(12.5,0)" /></marker></defs><sodipodi:namedview
     pagecolor="#000000"
     bordercolor="#666666"
     borderopacity="1"
     objecttolerance="10"
     gridtolerance="10"
     guidetolerance="10"
     inkscape:pageopacity="0"
     inkscape:pageshadow="2"
     inkscape:window-width="1680"
     inkscape:window-height="1001"
     id="namedview3454"
     showgrid="false"
     inkscape:zoom="1.5878906"
     inkscape:cx="160.90529"
     inkscape:cy="260.54241"
     inkscape:window-x="0"
     inkscape:window-y="0"
     inkscape:window-maximized="1"
     inkscape:current-layer="layer4" /><g
     id="g3424" /><g
     id="g3426" /><g
     id="g3428" /><g
     id="g3430" /><g
     id="g3432" /><g
     id="g3434" /><g
     id="g3436" /><g
     id="g3438" /><g
     id="g3440" /><g
     id="g3442" /><g
     id="g3444" /><g
     id="g3446" /><g
     id="g3448" /><g
     id="g3450" /><g
     id="g3452" /><g
     inkscape:groupmode="layer"
     id="layer1"
     inkscape:label="Layer 1"
     style="display:none"><g
       id="g3418"
       transform="matrix(0.74742811,0,0,0.74742811,64.661168,64.661488)"><g
         id="g3420"><path
           d="m 447.28,304.8 -0.365,-5.01 C 441.05,223.436 405.498,175.571 374.134,133.352 345.092,94.258 320.009,60.498 320.009,10.685 c 0,-4 -2.24,-7.656 -5.792,-9.49 -3.563,-1.844 -7.844,-1.542 -11.083,0.813 -47.104,33.708 -86.406,90.521 -100.135,144.729 -9.531,37.74 -10.792,80.167 -10.969,108.188 -43.5,-9.292 -53.354,-74.365 -53.458,-75.073 -0.49,-3.375 -2.552,-6.313 -5.552,-7.917 -3.031,-1.583 -6.594,-1.698 -9.667,-0.177 -2.281,1.104 -55.99,28.396 -59.115,137.375 -0.219,3.625 -0.229,7.25 -0.229,10.885 0,105.865 86.135,192 192,192 105.865,0 192,-86.135 192,-192 0,-5.312 -0.364,-10.27 -0.729,-15.218 z M 256.009,490.685 c -35.292,0 -64,-30.583 -64,-68.177 0,-1.281 -0.01,-2.573 0.083,-4.156 0.427,-15.854 3.438,-26.677 6.74,-33.875 6.188,13.292 17.26,25.51 35.219,25.51 5.896,0 10.667,-4.771 10.667,-10.667 0,-15.188 0.313,-32.708 4.094,-48.521 3.365,-14.031 11.406,-28.938 21.594,-40.896 4.531,15.521 13.365,28.083 21.99,40.344 12.344,17.542 25.104,35.677 27.344,66.604 0.135,1.833 0.271,3.677 0.271,5.656 -0.002,37.595 -28.71,68.178 -64.002,68.178 z m 67.412,-13.937 c 11.072,-15.099 17.922,-33.763 17.922,-54.24 0,-2.51 -0.156,-4.844 -0.469,-9.208 -2.531,-34.823 -17.667,-56.344 -31.031,-75.333 -11.385,-16.167 -21.208,-30.135 -21.208,-49.948 0,-4.052 -2.292,-7.75 -5.917,-9.552 -3.604,-1.813 -7.958,-1.406 -11.177,1.042 -20.458,15.458 -37.521,41.479 -43.479,66.323 -3.042,12.74 -4.104,26.521 -4.479,37.854 -7.396,-7.958 -9.688,-22.708 -9.708,-22.906 -0.479,-3.427 -2.583,-6.417 -5.656,-8.01 -3.052,-1.583 -6.708,-1.625 -9.781,-0.042 -2.688,1.375 -26.302,14.917 -27.656,64.729 -0.094,1.688 -0.104,3.375 -0.104,5.052 0,20.477 6.85,39.141 17.922,54.24 C 127.936,450.554 85.345,390.186 85.345,320.02 c 0,-3.198 -0.01,-6.385 0.208,-9.938 1.833,-63.938 22.292,-95.646 35.646,-109.635 9.312,33.333 33.708,76.906 81.479,76.906 5.896,0 10.667,-4.771 10.667,-10.667 0,-35.698 0.802,-76.948 10.344,-114.719 10.833,-42.792 40.51,-89 76.333,-120.281 5.948,45.688 30.833,79.188 56.99,114.385 31.094,41.854 63.24,85.135 68.625,155.219 l 0.365,5.104 c 0.333,4.438 0.677,8.865 0.677,13.625 -0.003,70.166 -42.594,130.534 -103.258,156.729 z"
           id="path3422"
           inkscape:connector-curvature="0"
           style="fill:#ffffff" /></g></g></g><g
     inkscape:groupmode="layer"
     id="layer2"
     inkscape:label="Layer 2"
     style="display:inline"><circle
       style="opacity:1;stroke:#ffffff;stroke-width:20.00074151;stroke-miterlimit:4;stroke-dasharray:none;stroke-opacity:1;fill:none;fill-opacity:1"
       id="path4753"
       cx="256.00949"
       cy="256.00949"
       r="240.26476" /></g><g
     inkscape:groupmode="layer"
     id="layer3"
     inkscape:label="Layer 3"><path
       style="fill:none;fill-rule:evenodd;stroke:#ffffff;stroke-width:20.00074151;stroke-linecap:butt;stroke-linejoin:miter;stroke-opacity:1;stroke-miterlimit:4;stroke-dasharray:none"
       d="M 68.647073,406.84412 441.48255,105.80467"
       id="path4756"
       inkscape:connector-curvature="0" /></g><g
     inkscape:groupmode="layer"
     id="layer4"
     inkscape:label="rain"><g
       id="g4996"
       transform="matrix(1.0191551,0,0,1.0191551,56.051261,56.051261)"><g
         id="g4948"><g
           id="g4950"><g
             id="g4952"><path
               id="path4954"
               d="M 268.6,96 C 249.8,69.6 230.6,42 215.8,13.2 211.8,5.2 203.4,0 194.6,0 185.8,0 177.4,4.8 173.4,13.2 159,41.6 140.6,68.4 123,94.4 c -35.6,51.6 -68.8,100 -68.8,154 0,83.6 58.8,144 140,144 82,0 144,-62 144,-144 0,-53.6 -34,-101.6 -69.6,-152.4 z m -74.4,280.4 c -72,0 -124,-54 -124,-128 0,-48.8 32,-95.6 65.6,-144.8 18,-26.4 36.8,-54 51.6,-83.2 2,-4 5.6,-4.4 7.2,-4.4 1.6,0 5.2,0.4 7.2,4.4 15.2,29.6 34.8,57.6 54,84.8 34,48.8 66.4,94.8 66.4,143.2 0,72.8 -55.2,128 -128,128 z"
               inkscape:connector-curvature="0"
               style="fill:#ffffff" /><path
               id="path4956"
               d="m 156.6,117.6 c -3.6,-2.4 -8.8,-1.6 -11.2,2 -13.6,20.8 -29.6,44.8 -41.2,69.2 -2,4 0,8.8 4,10.8 1.2,0.4 2.4,0.8 3.6,0.8 2.8,0 6,-1.6 7.2,-4.4 11.2,-23.6 26.4,-46.8 40,-66.8 2.4,-4 1.2,-8.8 -2.4,-11.6 z"
               inkscape:connector-curvature="0"
               style="fill:#ffffff" /><path
               id="path4958"
               d="m 104.6,208.8 c -4,-1.6 -8.8,0.4 -10.4,4.4 -1.6,4.4 -3.2,8.8 -4,13.2 -0.8,4.4 2,8.4 6.4,9.6 0.4,0 1.2,0 1.6,0 3.6,0 7.2,-2.8 8,-6.4 0.8,-3.6 1.6,-7.2 3.2,-10.8 1.6,-3.6 -0.4,-8 -4.8,-10 z"
               inkscape:connector-curvature="0"
               style="fill:#ffffff" /></g></g></g><g
         id="g4960" /><g
         id="g4962" /><g
         id="g4964" /><g
         id="g4966" /><g
         id="g4968" /><g
         id="g4970" /><g
         id="g4972" /><g
         id="g4974" /><g
         id="g4976" /><g
         id="g4978" /><g
         id="g4980" /><g
         id="g4982" /><g
         id="g4984" /><g
         id="g4986" /><g
         id="g4988" /></g></g></svg>