<?xml version="1.0" encoding="UTF-8" standalone="no"?>
<!-- Generator: Adobe Illustrator 19.0.0, SVG Export Plug-In . SVG Version: 6.00 Build 0)  -->

<svg
   xmlns:dc="http://purl.org/dc/elements/1.1/"
   xmlns:cc="http://creativecommons.org/ns#"
   xmlns:rdf="http://www.w3.org/1999/02/22-rdf-syntax-ns#"
   xmlns:svg="http://www.w3.org/2000/svg"
   xmlns="http://www.w3.org/2000/svg"
   xmlns:sodipodi="http://sodipodi.sourceforge.net/DTD/sodipodi-0.dtd"
   xmlns:inkscape="http://www.inkscape.org/namespaces/inkscape"
   version="1.1"
   id="Layer_1"
   x="0px"
   y="0px"
   viewBox="0 0 512.019 512.019"
   style="enable-background:new 0 0 512.019 512.019;"
   xml:space="preserve"
   width="512px"
   height="512px"
   inkscape:version="0.91 r13725"
   sodipodi:docname="sproutt.svg"><metadata
     id="metadata3458"><rdf:RDF><cc:Work
         rdf:about=""><dc:format>image/svg+xml</dc:format><dc:type
           rdf:resource="http://purl.org/dc/dcmitype/StillImage" /><dc:title></dc:title></cc:Work></rdf:RDF></metadata><defs
     id="defs3456"><marker
       inkscape:stockid="Arrow1Lstart"
       orient="auto"
       refY="0.0"
       refX="0.0"
       id="marker4540"
       style="overflow:visible"
       inkscape:isstock="true"><path
         id="path4542"
         d="M 0.0,0.0 L 5.0,-5.0 L -12.5,0.0 L 5.0,5.0 L 0.0,0.0 z "
         style="fill-rule:evenodd;stroke:#ffffff;stroke-width:1pt;stroke-opacity:1;fill:#000000;fill-opacity:1"
         transform="scale(0.8) translate(12.5,0)" /></marker><marker
       inkscape:stockid="Arrow1Lstart"
       orient="auto"
       refY="0.0"
       refX="0.0"
       id="Arrow1Lstart"
       style="overflow:visible"
       inkscape:isstock="true"><path
         id="path4270"
         d="M 0.0,0.0 L 5.0,-5.0 L -12.5,0.0 L 5.0,5.0 L 0.0,0.0 z "
         style="fill-rule:evenodd;stroke:#ffffff;stroke-width:1pt;stroke-opacity:1;fill:#000000;fill-opacity:1"
         transform="scale(0.8) translate(12.5,0)" /></marker></defs><sodipodi:namedview
     pagecolor="#000000"
     bordercolor="#666666"
     borderopacity="1"
     objecttolerance="10"
     gridtolerance="10"
     guidetolerance="10"
     inkscape:pageopacity="0"
     inkscape:pageshadow="2"
     inkscape:window-width="1680"
     inkscape:window-height="1001"
     id="namedview3454"
     showgrid="false"
     inkscape:zoom="1.5878906"
     inkscape:cx="160.90529"
     inkscape:cy="260.54241"
     inkscape:window-x="0"
     inkscape:window-y="0"
     inkscape:window-maximized="1"
     inkscape:current-layer="layer6" /><g
     id="g3424" /><g
     id="g3426" /><g
     id="g3428" /><g
     id="g3430" /><g
     id="g3432" /><g
     id="g3434" /><g
     id="g3436" /><g
     id="g3438" /><g
     id="g3440" /><g
     id="g3442" /><g
     id="g3444" /><g
     id="g3446" /><g
     id="g3448" /><g
     id="g3450" /><g
     id="g3452" /><g
     inkscape:groupmode="layer"
     id="layer1"
     inkscape:label="Layer 1"
     style="display:none"><g
       id="g3418"
       transform="matrix(0.74742811,0,0,0.74742811,64.661168,64.661488)"><g
         id="g3420"><path
           d="m 447.28,304.8 -0.365,-5.01 C 441.05,223.436 405.498,175.571 374.134,133.352 345.092,94.258 320.009,60.498 320.009,10.685 c 0,-4 -2.24,-7.656 -5.792,-9.49 -3.563,-1.844 -7.844,-1.542 -11.083,0.813 -47.104,33.708 -86.406,90.521 -100.135,144.729 -9.531,37.74 -10.792,80.167 -10.969,108.188 -43.5,-9.292 -53.354,-74.365 -53.458,-75.073 -0.49,-3.375 -2.552,-6.313 -5.552,-7.917 -3.031,-1.583 -6.594,-1.698 -9.667,-0.177 -2.281,1.104 -55.99,28.396 -59.115,137.375 -0.219,3.625 -0.229,7.25 -0.229,10.885 0,105.865 86.135,192 192,192 105.865,0 192,-86.135 192,-192 0,-5.312 -0.364,-10.27 -0.729,-15.218 z M 256.009,490.685 c -35.292,0 -64,-30.583 -64,-68.177 0,-1.281 -0.01,-2.573 0.083,-4.156 0.427,-15.854 3.438,-26.677 6.74,-33.875 6.188,13.292 17.26,25.51 35.219,25.51 5.896,0 10.667,-4.771 10.667,-10.667 0,-15.188 0.313,-32.708 4.094,-48.521 3.365,-14.031 11.406,-28.938 21.594,-40.896 4.531,15.521 13.365,28.083 21.99,40.344 12.344,17.542 25.104,35.677 27.344,66.604 0.135,1.833 0.271,3.677 0.271,5.656 -0.002,37.595 -28.71,68.178 -64.002,68.178 z m 67.412,-13.937 c 11.072,-15.099 17.922,-33.763 17.922,-54.24 0,-2.51 -0.156,-4.844 -0.469,-9.208 -2.531,-34.823 -17.667,-56.344 -31.031,-75.333 -11.385,-16.167 -21.208,-30.135 -21.208,-49.948 0,-4.052 -2.292,-7.75 -5.917,-9.552 -3.604,-1.813 -7.958,-1.406 -11.177,1.042 -20.458,15.458 -37.521,41.479 -43.479,66.323 -3.042,12.74 -4.104,26.521 -4.479,37.854 -7.396,-7.958 -9.688,-22.708 -9.708,-22.906 -0.479,-3.427 -2.583,-6.417 -5.656,-8.01 -3.052,-1.583 -6.708,-1.625 -9.781,-0.042 -2.688,1.375 -26.302,14.917 -27.656,64.729 -0.094,1.688 -0.104,3.375 -0.104,5.052 0,20.477 6.85,39.141 17.922,54.24 C 127.936,450.554 85.345,390.186 85.345,320.02 c 0,-3.198 -0.01,-6.385 0.208,-9.938 1.833,-63.938 22.292,-95.646 35.646,-109.635 9.312,33.333 33.708,76.906 81.479,76.906 5.896,0 10.667,-4.771 10.667,-10.667 0,-35.698 0.802,-76.948 10.344,-114.719 10.833,-42.792 40.51,-89 76.333,-120.281 5.948,45.688 30.833,79.188 56.99,114.385 31.094,41.854 63.24,85.135 68.625,155.219 l 0.365,5.104 c 0.333,4.438 0.677,8.865 0.677,13.625 -0.003,70.166 -42.594,130.534 -103.258,156.729 z"
           id="path3422"
           inkscape:connector-curvature="0"
           style="fill:#ffffff" /></g></g></g><g
     inkscape:groupmode="layer"
     id="layer2"
     inkscape:label="Layer 2"
     style="display:inline"><circle
       style="opacity:1;stroke:#ffffff;stroke-width:20.00074151;stroke-miterlimit:4;stroke-dasharray:none;stroke-opacity:1;fill:none;fill-opacity:1"
       id="path4753"
       cx="256.00949"
       cy="256.00949"
       r="240.26476" /></g><g
     inkscape:groupmode="layer"
     id="layer3"
     inkscape:label="Layer 3"
     style="display:none"><path
       style="fill:none;fill-rule:evenodd;stroke:#ffffff;stroke-width:20.00074196;stroke-linecap:butt;stroke-linejoin:miter;stroke-miterlimit:4;stroke-dasharray:none;stroke-opacity:1"
       d="M 68.647073,406.84412 441.48255,105.80467"
       id="path4756"
       inkscape:connector-curvature="0" /></g><g
     inkscape:groupmode="layer"
     id="layer4"
     inkscape:label="rain"
     style="display:none"><g
       id="g4996"
       transform="matrix(1.0191551,0,0,1.0191551,56.051261,56.051261)"><g
         id="g4948"><g
           id="g4950"><g
             id="g4952"><path
               id="path4954"
               d="M 268.6,96 C 249.8,69.6 230.6,42 215.8,13.2 211.8,5.2 203.4,0 194.6,0 185.8,0 177.4,4.8 173.4,13.2 159,41.6 140.6,68.4 123,94.4 c -35.6,51.6 -68.8,100 -68.8,154 0,83.6 58.8,144 140,144 82,0 144,-62 144,-144 0,-53.6 -34,-101.6 -69.6,-152.4 z m -74.4,280.4 c -72,0 -124,-54 -124,-128 0,-48.8 32,-95.6 65.6,-144.8 18,-26.4 36.8,-54 51.6,-83.2 2,-4 5.6,-4.4 7.2,-4.4 1.6,0 5.2,0.4 7.2,4.4 15.2,29.6 34.8,57.6 54,84.8 34,48.8 66.4,94.8 66.4,143.2 0,72.8 -55.2,128 -128,128 z"
               inkscape:connector-curvature="0"
               style="fill:#ffffff" /><path
               id="path4956"
               d="m 156.6,117.6 c -3.6,-2.4 -8.8,-1.6 -11.2,2 -13.6,20.8 -29.6,44.8 -41.2,69.2 -2,4 0,8.8 4,10.8 1.2,0.4 2.4,0.8 3.6,0.8 2.8,0 6,-1.6 7.2,-4.4 11.2,-23.6 26.4,-46.8 40,-66.8 2.4,-4 1.2,-8.8 -2.4,-11.6 z"
               inkscape:connector-curvature="0"
               style="fill:#ffffff" /><path
               id="path4958"
               d="m 104.6,208.8 c -4,-1.6 -8.8,0.4 -10.4,4.4 -1.6,4.4 -3.2,8.8 -4,13.2 -0.8,4.4 2,8.4 6.4,9.6 0.4,0 1.2,0 1.6,0 3.6,0 7.2,-2.8 8,-6.4 0.8,-3.6 1.6,-7.2 3.2,-10.8 1.6,-3.6 -0.4,-8 -4.8,-10 z"
               inkscape:connector-curvature="0"
               style="fill:#ffffff" /></g></g></g><g
         id="g4960" /><g
         id="g4962" /><g
         id="g4964" /><g
         id="g4966" /><g
         id="g4968" /><g
         id="g4970" /><g
         id="g4972" /><g
         id="g4974" /><g
         id="g4976" /><g
         id="g4978" /><g
         id="g4980" /><g
         id="g4982" /><g
         id="g4984" /><g
         id="g4986" /><g
         id="g4988" /></g></g><g
     inkscape:groupmode="layer"
     id="layer5"
     inkscape:label="speaker"
     style="display:none"><g
       id="g5310"
       transform="matrix(6.3188899,0,0,6.3188899,66.442794,66.44161)"><g
         id="g5264"><path
           id="path5266"
           d="m 28.404,7.758 c -0.975,-0.552 -2.131,-0.534 -3.09,0.044 -0.046,0.027 -0.09,0.059 -0.13,0.093 L 11.634,19.358 1,19.358 c -0.553,0 -1,0.447 -1,1 l 0,19 c 0,0.266 0.105,0.52 0.293,0.707 0.188,0.187 0.441,0.293 0.707,0.293 l 10.61,-0.005 13.543,12.44 c 0.05,0.046 0.104,0.086 0.161,0.12 0.492,0.297 1.037,0.446 1.582,0.446 0.517,-0.001 1.033,-0.134 1.508,-0.402 C 29.403,52.393 30,51.363 30,50.201 L 30,10.514 C 30,9.353 29.403,8.323 28.404,7.758 Z M 28,50.201 c 0,0.431 -0.217,0.81 -0.579,1.015 -0.155,0.087 -0.548,0.255 -1,0.026 L 13,38.913 13,34.357 c 0,-0.553 -0.447,-1 -1,-1 -0.553,0 -1,0.447 -1,1 l 0,3.996 -9,0.004 0,-17 9,0 0,4 c 0,0.553 0.447,1 1,1 0.553,0 1,-0.447 1,-1 L 13,20.821 26.405,9.481 C 26.866,9.239 27.266,9.411 27.421,9.499 27.783,9.704 28,10.083 28,10.514 l 0,39.687 z"
           inkscape:connector-curvature="0"
           style="fill:#ffffff" /><path
           id="path5268"
           d="m 52.026,29.858 c 0,-8.347 -5.316,-15.76 -13.229,-18.447 -0.522,-0.177 -1.091,0.103 -1.269,0.626 -0.177,0.522 0.103,1.091 0.626,1.269 7.101,2.411 11.872,9.063 11.872,16.553 0,7.483 -4.762,14.136 -11.849,16.554 -0.522,0.178 -0.802,0.746 -0.623,1.27 0.142,0.415 0.53,0.677 0.946,0.677 0.107,0 0.216,-0.017 0.323,-0.054 7.898,-2.695 13.203,-10.108 13.203,-18.448 z"
           inkscape:connector-curvature="0"
           style="fill:#ffffff" /><path
           id="path5270"
           d="M 44.453,6.374 C 43.945,6.161 43.358,6.395 43.141,6.904 42.926,7.413 43.163,8 43.672,8.216 52.376,11.909 58,20.405 58,29.858 c 0,9.777 -5.894,18.38 -15.015,21.914 -0.515,0.2 -0.771,0.779 -0.571,1.294 0.153,0.396 0.532,0.639 0.933,0.639 0.12,0 0.242,-0.021 0.361,-0.067 C 53.605,49.801 60,40.467 60,29.858 60,19.6 53.897,10.382 44.453,6.374 Z"
           inkscape:connector-curvature="0"
           style="fill:#ffffff" /><path
           id="path5272"
           d="m 43.026,29.858 c 0,-5.972 -4.009,-11.302 -9.749,-12.962 -0.53,-0.151 -1.084,0.152 -1.238,0.684 -0.153,0.53 0.152,1.085 0.684,1.238 4.889,1.413 8.304,5.953 8.304,11.04 0,5.087 -3.415,9.627 -8.304,11.04 -0.531,0.153 -0.837,0.708 -0.684,1.238 0.127,0.438 0.526,0.723 0.961,0.723 0.092,0 0.185,-0.013 0.277,-0.039 5.741,-1.661 9.749,-6.991 9.749,-12.962 z"
           inkscape:connector-curvature="0"
           style="fill:#ffffff" /></g><g
         id="g5274" /><g
         id="g5276" /><g
         id="g5278" /><g
         id="g5280" /><g
         id="g5282" /><g
         id="g5284" /><g
         id="g5286" /><g
         id="g5288" /><g
         id="g5290" /><g
         id="g5292" /><g
         id="g5294" /><g
         id="g5296" /><g
         id="g5298" /><g
         id="g5300" /><g
         id="g5302" /></g></g><g
     inkscape:groupmode="layer"
     id="layer6"
     inkscape:label="roza"><g
       id="g5611"
       transform="matrix(0.68501241,0,0,0.68501241,80.646559,80.646286)"><g
         id="g5569"><g
           id="g5571"><path
             id="path5573"
             d="m 498.255,367.242 c -1.282,-2.428 -3.566,-4.171 -6.246,-4.766 -0.676,-0.15 -54.965,-12.124 -124.16,-21.685 -0.097,-0.315 -0.163,-0.633 -0.296,-0.942 -30.509,-71.187 -40.612,-71.187 -46.04,-71.187 -6.543,0 -39.05,6.681 -65.514,12.362 l 0,-68.518 c 0.396,0 0.79,-0.031 1.181,-0.081 9.069,2.416 18.274,3.608 27.404,3.608 27.67,0 54.63,-10.857 74.872,-31.098 28.057,-28.058 38.081,-69.018 26.159,-106.895 -0.917,-2.917 -3.201,-5.201 -6.118,-6.118 -37.874,-11.919 -78.834,-1.898 -106.895,26.159 -4.367,4.368 -8.243,9.078 -11.722,14.01 C 257.391,84.394 244.866,58.121 224.321,37.576 190.415,3.672 140.923,-8.438 95.152,5.969 c -2.916,0.917 -5.199,3.201 -6.117,6.117 -14.407,45.771 -2.294,95.265 31.61,129.171 24.462,24.462 57.034,37.577 90.473,37.577 8.705,0 17.468,-0.912 26.164,-2.723 l 0,108.977 c -3.626,0.796 -6.846,1.507 -9.476,2.09 -19.576,-3.777 -51.799,-7.913 -62.657,2.943 l -17.155,17.157 -25.982,8.66 C 90.459,326.457 79.646,373.081 78.462,378.639 67.745,372.156 57.169,364.449 47,355.298 c -1.718,-1.547 -3.948,-2.403 -6.261,-2.403 -20.724,0 -28.078,10.084 -28.078,18.718 0,2.695 0,7.713 19.672,30.533 7.6,8.815 23.622,26.455 45.545,45.548 C 111.56,477.03 161.686,512 209.204,512 c 54.75,0 93.893,-11.517 122.475,-19.927 15.477,-4.554 27.703,-8.15 36.631,-8.15 28.524,0 83.448,-9.099 85.771,-9.486 3.225,-0.538 5.936,-2.72 7.151,-5.757 l 37.437,-93.592 c 1.02,-2.549 0.868,-5.418 -0.414,-7.846 z M 285.84,111.319 c 21.934,-21.934 53.445,-30.484 83.276,-22.896 7.588,29.829 -0.962,61.342 -22.896,83.276 -20.068,20.069 -48.149,28.892 -75.629,24.442 7.598,-12.588 18.283,-27.044 27.031,-31.418 4.622,-2.311 6.496,-7.933 4.185,-12.557 -2.312,-4.621 -7.936,-6.496 -12.557,-4.185 -10.934,5.467 -21.248,18.034 -28.899,29.368 -1.218,-24.303 7.756,-48.297 25.489,-66.03 z m -91.186,-3.335 c 24.55,16.367 33.412,50.107 33.551,50.651 0.006,0.025 0.018,0.047 0.025,0.072 -34.297,5.418 -69.302,-5.642 -94.348,-30.687 -27.787,-27.786 -38.433,-67.837 -28.369,-105.574 37.734,-10.057 77.788,0.581 105.574,28.369 24.252,24.251 35.438,57.846 31.202,91.091 -5.412,-13.719 -16.755,-35.832 -37.253,-49.496 -4.305,-2.87 -10.114,-1.705 -12.979,2.596 -2.867,4.299 -1.705,10.111 2.597,12.978 z M 96.713,382.808 c 2.307,-11.536 12.412,-42.843 31.219,-49.112 l 28.077,-9.359 c 1.378,-0.46 2.63,-1.234 3.658,-2.261 l 18.569,-18.569 c 4.598,-2.83 27.287,-1.694 47.853,2.409 1.277,0.254 2.595,0.241 3.864,-0.041 37.204,-8.267 78.515,-16.861 89.418,-18.29 5.419,5.973 17.071,28.485 26.907,50.371 -10.859,-1.348 -21.964,-2.611 -33.192,-3.734 -92.975,-9.301 -146.489,-1.275 -159.049,23.845 -2.518,5.037 -2.354,10.528 0.451,15.066 7.747,12.536 35.26,17.198 101.511,17.198 9.436,0 13.812,2.484 14.693,4.611 0.783,1.887 -0.203,4.916 -2.3,7.185 -4.784,2.847 -36.333,11.951 -81.773,9.093 -25.613,-1.615 -58.975,-7.447 -92.25,-23.882 1.147,-1.227 1.99,-2.764 2.344,-4.53 z m 349.109,73.997 c -14.424,2.27 -55.41,8.399 -77.512,8.399 -11.626,0 -24.992,3.932 -41.914,8.911 -27.49,8.089 -65.138,19.166 -117.192,19.166 -40.47,0 -85.094,-30.767 -115.402,-56.577 -32.273,-27.483 -54.244,-54.18 -60.838,-64.024 1.271,-0.355 2.861,-0.658 4.476,-0.85 50.935,44.267 110.251,56.154 151.395,58.264 42.498,2.182 83.891,-5.82 92.501,-14.427 7.698,-7.699 10.371,-18.907 6.65,-27.889 -2.501,-6.038 -9.982,-16.166 -31.987,-16.166 -58.305,0 -77.615,-4.05 -83.789,-7.225 5.922,-6.71 31.474,-22.289 139.013,-11.54 72.654,7.266 140.337,20.36 165.932,25.622 l -31.333,78.336 z"
             inkscape:connector-curvature="0"
             style="fill:#ffffff" /></g></g><g
         id="g5575" /><g
         id="g5577" /><g
         id="g5579" /><g
         id="g5581" /><g
         id="g5583" /><g
         id="g5585" /><g
         id="g5587" /><g
         id="g5589" /><g
         id="g5591" /><g
         id="g5593" /><g
         id="g5595" /><g
         id="g5597" /><g
         id="g5599" /><g
         id="g5601" /><g
         id="g5603" /></g></g></svg>